<svg xmlns="http://www.w3.org/2000/svg" viewBox="0 0 24.318 24.318"><path d="M12.159.001C5.446.001 0 5.445 0 12.159c0 6.716 5.446 12.158 12.159 12.158 6.716 0 12.159-5.442 12.159-12.158C24.316 5.445 18.875.001 12.159.001zm0 22.258c-5.578 0-10.1-4.521-10.1-10.1 0-5.577 4.522-10.098 10.1-10.098 5.577 0 10.1 4.521 10.1 10.098 0 5.578-4.525 10.1-10.1 10.1zm1.78-9.894h3.035v4.252c-2.303-.323-3.422.485-5.063.403-7.695-.365-6.083-11.324 2.227-9.925.539.092 1.401.504 2.06.886.006.353-.013.712-.031 1.342-1.094-.302-1.647-.644-2.636-.608-4.117.158-4.941 7.003.203 6.279.399-.545.121-1.768.205-2.629z" fill="#090509"/></svg>