<svg xmlns="http://www.w3.org/2000/svg" viewBox="0 0 512 512"><path d="M339.478 372.87H239.304c-27.618 0-50.087-22.469-50.087-50.087V256c0-9.22 7.475-16.696 16.696-16.696h133.565c9.206 0 16.696-7.49 16.696-16.696s-7.49-16.696-16.696-16.696H205.913c-9.22 0-16.696-7.475-16.696-16.696v-66.783c0-9.206-7.49-16.696-16.696-16.696-9.206 0-16.696 7.49-16.696 16.696v200.348c0 46.03 37.448 83.478 83.478 83.478h100.174c9.206 0 16.696-7.49 16.696-16.696.001-9.204-7.489-16.693-16.695-16.693z"/><path d="M422.957 0H89.044C39.945 0 0 39.945 0 89.044v333.913C0 472.055 39.945 512 89.044 512h333.913C472.055 512 512 472.055 512 422.957V89.044C512 39.945 472.055 0 422.957 0zM239.304 339.478h100.174c27.618 0 50.087 22.469 50.087 50.087 0 27.618-22.469 50.087-50.087 50.087H239.304c-64.442 0-116.87-52.428-116.87-116.87V122.435c0-27.618 22.469-50.087 50.087-50.087 27.618 0 50.087 22.469 50.087 50.087v50.087h116.87c27.618 0 50.087 22.469 50.087 50.087 0 27.618-22.469 50.087-50.087 50.087h-116.87v50.087c.001 9.206 7.49 16.695 16.696 16.695z"/></svg>